HIERARCHY
ROOT Hips
{
	OFFSET 0.00000 0.00000 0.00000
	CHANNELS 6 Xposition Yposition Zposition Zrotation Yrotation Xrotation 
	JOINT LHipJoint
	{
		OFFSET 0 0 0
		CHANNELS 3 Zrotation Yrotation Xrotation
		JOINT LeftHip
		{
			OFFSET 1.61328 -1.70571 0.84375
			CHANNELS 3 Zrotation Yrotation Xrotation
			JOINT LeftKnee
			{
				OFFSET 2.32400 -6.38513 0.00000
				CHANNELS 3 Zrotation Yrotation Xrotation
				JOINT LeftAnkle
				{
					OFFSET 2.58843 -7.11166 0.00000
					CHANNELS 3 Zrotation Yrotation Xrotation
					JOINT LeftToe
					{
						OFFSET 0.17200 -0.47257 2.47970
						CHANNELS 3 Zrotation Yrotation Xrotation
						End Site
						{
							OFFSET 0.00000 -0.00000 1.26912
						}
					}
				}
			}
		}
	}
	JOINT RHipJoint
	{
		OFFSET 0 0 0
		CHANNELS 3 Zrotation Yrotation Xrotation
		JOINT RightHip
		{
			OFFSET -1.49930 -1.70570 0.84375
			CHANNELS 3 Zrotation Yrotation Xrotation
			JOINT RightKnee
			{
				OFFSET -2.30458 -6.33178 0.00000
				CHANNELS 3 Zrotation Yrotation Xrotation
				JOINT RightAnkle
				{
					OFFSET -2.62261 -7.20556 0.00000
					CHANNELS 3 Zrotation Yrotation Xrotation
					JOINT RightToe
					{
						OFFSET -0.18709 -0.51403 2.51340
						CHANNELS 3 Zrotation Yrotation Xrotation
						End Site
						{
							OFFSET -0.00000 -0.00000 1.28858
						}
					}
				}
			}
		}
	}
	JOINT lowerback
	{
		OFFSET 0 0 0
		CHANNELS 3 Zrotation Yrotation Xrotation
		JOINT Chest
		{
			OFFSET -0.03798 2.19274 -0.19881
			CHANNELS 3 Zrotation Yrotation Xrotation
			JOINT Chest2
			{
				OFFSET -0.00024 2.19460 0.05248
				CHANNELS 3 Zrotation Yrotation Xrotation
				JOINT lowerneck
				{
					OFFSET 0 0 0
					CHANNELS 3 Zrotation Yrotation Xrotation
					JOINT Neck
					{
						OFFSET -0.00746 1.82323 0.17286
						CHANNELS 3 Zrotation Yrotation Xrotation
						JOINT Head
						{
							OFFSET 0.11826 1.82121 -0.27841
							CHANNELS 3 Zrotation Yrotation Xrotation
							End Site
							{
								OFFSET 0.03496 1.85543 -0.11495
							}
						}
					}
				}
				JOINT LeftCollar
				{
					OFFSET 0 0 0
					CHANNELS 3 Zrotation Yrotation Xrotation
					JOINT LeftShoulder
					{
						OFFSET 3.71926 0.78840 0.25473
CHANNELS 3 Zrotation Xrotation Yrotation
						JOINT LeftElbow
						{
OFFSET 0 -5.375870 0.000000
CHANNELS 3 Zrotation Xrotation Yrotation
							JOINT LeftWrist
							{
OFFSET 0 -3.359770 0.000000
CHANNELS 3 Zrotation Xrotation Yrotation
								JOINT lhand
								{
									OFFSET 0 0 0
CHANNELS 3 Zrotation Xrotation Yrotation
									JOINT LFingers
									{
OFFSET 0 -0.561860 0.000000
CHANNELS 3 Zrotation Xrotation Yrotation
										End Site
										{
OFFSET 0 -0.452990 0.000000
										}
									}
								}
								JOINT LThumb
								{
OFFSET 0 0.000000 0.000000
CHANNELS 3 Zrotation Xrotation Yrotation
									End Site
									{
OFFSET 0 -0.459900 0.459900
									}
								}
							}
						}
					}
				}
				JOINT RightCollar
				{
					OFFSET 0 0 0
					CHANNELS 3 Zrotation Yrotation Xrotation
					JOINT RightShoulder
					{
						OFFSET -3.65136 0.56074 0.01624
CHANNELS 3 Zrotation Xrotation Yrotation
						JOINT RightElbow
						{
OFFSET 0 -5.228190 0.000000
CHANNELS 3 Zrotation Xrotation Yrotation
							JOINT RightWrist
							{
OFFSET 0 -3.407640 0.000000
CHANNELS 3 Zrotation Xrotation Yrotation
								JOINT rhand
								{
									OFFSET 0 0 0
CHANNELS 3 Zrotation Xrotation Yrotation
									JOINT RFingers
									{
OFFSET 0 -0.583250 0.000000
CHANNELS 3 Zrotation Xrotation Yrotation
										End Site
										{
OFFSET 0 -0.470240 0.000000
										}
									}
								}
								JOINT RThumb
								{
OFFSET 0 0.000000 0.000000
CHANNELS 3 Zrotation Xrotation Yrotation
									End Site
									{
OFFSET 0 -0.477420 0.477420
									}
								}
							}
						}
					}
				}
			}
		}
	}
}
MOTION
Frames: 5
Frame Time: 0.008333333333333333
50.551800 16.590800 -7.697400 -54.375700 -87.904600 52.825000 0.000000 0.000000 0.000000 -19.337700 1.800800 -6.044400 2.078800 9.028300 25.883800 0.947200 2.290000 -19.346000 0.082900 -1.857600 -5.112300 0.000000 0.000000 0.000000 24.040500 1.615000 -8.752300 -3.464900 -11.412100 33.682600 -2.278500 -0.326700 -28.707900 -1.022900 -6.434000 18.049000 0.192100 0.215000 0.309000 0.598000 0.244000 2.688700 0.510000 0.106900 2.581500 -3.116600 -3.053800 -9.824600 8.824400 -4.472100 5.723600 2.926000 -1.899000 3.586200 -0.000000 -0.000000 0.000000 0.356000 -1.117500 -20.547100 13.829100 -22.489900 2.762400 18.858300 -3.455000 -16.075000 0.000000 0.000000 0.000000 -7.125000 0.000000 0.000000 -8.440700 46.739200 0.364800 -0.000000 -0.000000 0.000000 0.135900 3.453100 20.303800 -16.044300 -25.580700 -3.665100 -24.158300 -5.627100 -2.783100 0.000000 0.000000 0.000000 7.125000 0.000000 -0.000000 1.866500 26.928900 0.819200
50.553465 16.590687 -7.698587 -54.751327 -87.921647 53.172073 0.000000 0.000000 0.000000 -19.342626 1.795363 -6.018773 2.078687 9.027975 25.882979 0.947652 2.309096 -19.359604 0.080467 -1.829178 -5.033782 0.000000 0.000000 0.000000 24.036846 1.609025 -8.726145 -3.464058 -11.410848 33.678256 -2.274032 -0.363269 -28.692060 -1.004687 -6.378139 17.885486 0.174810 0.215694 0.333233 0.603911 0.244359 2.712561 0.525680 0.106284 2.592392 -3.114804 -3.042170 -9.814836 8.825544 -4.454645 5.692214 2.927361 -1.891284 3.574037 0.000000 0.000000 0.000000 0.292408 -1.101708 -20.581077 13.873892 -22.554160 2.779599 18.916618 -3.515834 -16.115039 0.000000 0.000000 0.000000 -7.125000 0.000000 0.000000 -8.396641 46.788425 0.373135 0.000000 0.000000 0.000000 0.148676 3.450355 20.453652 -15.946760 -25.448323 -3.623091 -24.400895 -6.677794 -3.875254 0.000000 0.000000 0.000000 7.125000 0.000000 0.000000 1.685962 25.725271 0.787205
50.554975 16.591310 -7.699875 -54.890391 -87.924280 53.295942 0.000000 0.000000 0.000000 -19.336027 1.790847 -6.055896 2.080675 9.032094 25.895838 0.936783 2.421249 -19.308826 0.091936 -1.955172 -5.381836 0.000000 0.000000 0.000000 24.042024 1.601607 -8.711075 -3.461616 -11.407251 33.666023 -2.272706 -0.386336 -28.691266 -0.996238 -6.351995 17.809244 0.173545 0.218310 0.353603 0.597252 0.247665 2.729377 0.519597 0.107810 2.598244 -3.093478 -3.038496 -9.789058 8.855933 -4.452545 5.641760 2.933717 -1.890490 3.554834 0.000000 0.000000 0.000000 0.270706 -1.074316 -20.707507 13.927849 -22.631464 2.800286 18.912989 -3.663331 -16.103320 0.000000 0.000000 0.000000 -7.125000 0.000000 0.000000 -8.396994 46.775712 0.370507 0.000000 0.000000 0.000000 0.180740 3.415044 20.436085 -15.979501 -25.492918 -3.637156 -24.334915 -6.088616 -3.237131 0.000000 0.000000 0.000000 7.125000 0.000000 0.000000 1.732194 26.426993 0.780513
50.556065 16.591668 -7.701097 -54.889384 -87.921011 53.297959 0.000000 0.000000 0.000000 -19.325575 1.794956 -6.098167 2.081497 9.033862 25.901253 0.929038 2.487055 -19.265958 0.100791 -2.047585 -5.637276 0.000000 0.000000 0.000000 24.048101 1.595200 -8.718501 -3.460138 -11.405006 33.658387 -2.269876 -0.408904 -28.680786 -0.987376 -6.324631 17.729191 0.178590 0.215882 0.352002 0.590055 0.244355 2.737383 0.509381 0.106276 2.607463 -3.086178 -3.036009 -9.776356 8.892735 -4.454024 5.638042 2.943821 -1.890135 3.552569 0.000000 0.000000 0.000000 0.292964 -0.979399 -21.054626 14.037616 -22.788459 2.842659 18.921884 -4.012074 -16.151506 0.000000 0.000000 0.000000 -7.125000 0.000000 0.000000 -8.400990 46.826748 0.381294 0.000000 0.000000 0.000000 0.222333 3.391349 20.388336 -15.982239 -25.496564 -3.638331 -24.251282 -5.666312 -2.846591 0.000000 0.000000 0.000000 7.125000 0.000000 0.000000 1.795389 26.857209 0.790994
50.556300 16.591700 -7.702030 -55.092587 -87.921187 53.506736 0.000000 0.000000 0.000000 -19.317531 1.791508 -6.105754 2.082010 9.034910 25.904720 0.929020 2.491325 -19.268245 0.101590 -2.055002 -5.657644 0.000000 0.000000 0.000000 24.055038 1.597856 -8.722682 -3.458761 -11.403041 33.651583 -2.268510 -0.407234 -28.671580 -0.989977 -6.332642 17.752766 0.190035 0.211180 0.342424 0.583954 0.238080 2.737713 0.496567 0.103500 2.613270 -3.073014 -3.036317 -9.771463 8.901808 -4.460473 5.678863 2.943970 -1.891907 3.564424 0.000000 0.000000 0.000000 0.311016 -0.875866 -21.337538 14.131318 -22.922116 2.879037 18.947082 -4.286068 -16.235673 0.000000 0.000000 0.000000 -7.125000 0.000000 0.000000 -8.399186 46.916984 0.400118 0.000000 0.000000 0.000000 0.267927 3.397696 20.372868 -15.962427 -25.469660 -3.629793 -24.240978 -5.653817 -2.838961 0.000000 0.000000 0.000000 7.125000 0.000000 0.000000 1.803294 26.865727 0.794138
